# xmcd CD database file
#
# Track frame offsets:
#	150
#	3617
#	19227
#	34677
#	56887
#	75090
#	93827
#	117237
#	138555
#	158592
#	181160
#	200982
#	222505
#	247227
#	272985
#	286112
#	296117
#	331667
#
# Disc length: 4795 seconds
#
# Revision: 0
# Processed by: cddbd v1.5.1PL0 Copyright (c) Steve Scherf et al.
# Submitted via: CDex 1.51
#
DISCID=0a12b912
DTITLE=EXILE - Styles Of Beyond
DYEAR=2003
DGENRE=JPop
TTITLE0=Intro
TTITLE1=ESCAPE
TTITLE2=Sandcastles
TTITLE3=Kiss you
TTITLE4=Ring your bell
TTITLE5=wishes
TTITLE6=羽1/2
TTITLE7=Distance"Orchestra Version"
TTITLE8=Release yourself
TTITLE9=Cross 〜never say die〜
TTITLE10=can't say words
TTITLE11=Guilty
TTITLE12=We Will 〜あの場所で〜
TTITLE13=song for you
TTITLE14=S・O・B
TTITLE15=。
TTITLE16=Feel the Confilict "S・O・B Version"
TTITLE17=@
EXTD=YEAR: 2003
EXTT0=
EXTT1=
EXTT2=
EXTT3=
EXTT4=
EXTT5=
EXTT6=
EXTT7=
EXTT8=
EXTT9=
EXTT10=
EXTT11=
EXTT12=
EXTT13=
EXTT14=
EXTT15=
EXTT16=
EXTT17=
PLAYORDER=
